<svg width="18" height="16" viewBox="0 0 18 16" fill="none" xmlns="http://www.w3.org/2000/svg">
<path d="M13.1139 5.29103C13.6659 4.73903 14.2139 3.45103 11.9139 5.01503C8.64592 7.27003 5.42492 9.38703 5.42492 9.38703C5.09336 9.53696 4.73491 9.61832 4.37112 9.62622C4.00732 9.63413 3.64568 9.56841 3.30792 9.43303C1.92792 9.01903 0.316918 8.46703 0.316918 8.46703C0.316918 8.46703 -0.783082 7.77603 1.09992 7.04003C1.09992 7.04003 9.06092 3.77303 11.8219 2.62203C12.8799 2.16203 16.4689 0.690032 16.4689 0.690032C16.4689 0.690032 18.1259 0.0450318 17.9879 1.61003C17.9419 2.25403 17.5739 4.51003 17.2059 6.94803C16.6529 10.399 16.0549 14.173 16.0549 14.173C16.0549 14.173 15.9629 15.231 15.1809 15.415C14.3438 15.4009 13.535 15.1097 12.8809 14.587C12.6969 14.449 9.42992 12.378 8.23292 11.366C8.11116 11.2835 8.01223 11.1716 7.94535 11.0406C7.87848 10.9096 7.84581 10.7639 7.8504 10.6169C7.85499 10.4699 7.89669 10.3264 7.97161 10.1999C8.04653 10.0733 8.15225 9.96776 8.27892 9.89303C9.93892 8.37503 11.9179 6.48803 13.1139 5.29103Z" fill="#80A3FF"/>
</svg>
