<svg width="20" height="20" viewBox="0 0 20 20" fill="none" xmlns="http://www.w3.org/2000/svg">
<path fill-rule="evenodd" clip-rule="evenodd" d="M10 20C15.5228 20 20 15.5228 20 10C20 4.47715 15.5228 0 10 0C4.47715 0 0 4.47715 0 10C0 15.5228 4.47715 20 10 20ZM13 8C13 9.6569 11.6569 11 10 11C8.3431 11 7 9.6569 7 8C7 6.34315 8.3431 5 10 5C11.6569 5 13 6.34315 13 8ZM3.99927 15C5.36758 13.1783 7.54609 12 9.9998 12C12.4535 12 14.6321 13.1783 16.0004 15C14.6321 16.8217 12.4535 18 9.9998 18C7.54609 18 5.36758 16.8217 3.99927 15Z" fill="#2F2F2F"/>
</svg>
