<svg width="18" height="18" viewBox="0 0 18 18" fill="none" xmlns="http://www.w3.org/2000/svg">
<path d="M9.00225 0H8.99776C4.03538 0 1.1809e-05 4.0365 1.1809e-05 8.99999C-0.00306968 10.8956 0.596991 12.7431 1.71339 14.2751L0.591761 17.6186L4.05113 16.5127C5.51855 17.4863 7.24127 18.0038 9.00225 18C13.9646 18 18 13.9624 18 8.99999C18 4.03762 13.9646 0 9.00225 0ZM14.2391 12.7091C14.022 13.3222 13.1603 13.8307 12.4729 13.9792C12.0026 14.0794 11.3884 14.1592 9.32063 13.302C6.67576 12.2062 4.97251 9.51861 4.83976 9.34424C4.71263 9.16986 3.77101 7.92112 3.77101 6.62962C3.77101 5.33812 4.42688 4.70924 4.69126 4.43924C4.90838 4.21762 5.26726 4.11637 5.61151 4.11637C5.72288 4.11637 5.82301 4.12199 5.91301 4.1265C6.17738 4.13775 6.31013 4.1535 6.48451 4.57087C6.70163 5.09399 7.23038 6.38549 7.29338 6.51824C7.35751 6.65099 7.42163 6.83099 7.33163 7.00537C7.24726 7.18537 7.17301 7.26524 7.04026 7.41824C6.90751 7.57124 6.78151 7.68824 6.64876 7.85249C6.52726 7.99537 6.39001 8.14837 6.54301 8.41274C6.69601 8.67149 7.22476 9.53436 8.00326 10.2274C9.00788 11.1217 9.82238 11.4075 10.1138 11.529C10.3309 11.619 10.5896 11.5976 10.7483 11.4289C10.9496 11.2117 11.1983 10.8517 11.4514 10.4974C11.6314 10.2431 11.8586 10.2116 12.0971 10.3016C12.3401 10.386 13.626 11.0216 13.8904 11.1532C14.1548 11.286 14.3291 11.349 14.3933 11.4604C14.4563 11.5717 14.4563 12.0949 14.2391 12.7091Z" fill="#80A3FF"/>
</svg>
